<svg width="464" height="456" viewBox="0 0 464 456" fill="none" xmlns="http://www.w3.org/2000/svg">
<g filter="url(#filter0_d_0_1)">
<ellipse cx="232.463" cy="223.767" rx="210.5" ry="206.5" fill="#111111"/>
</g>
<path d="M170.93 230.715C170.697 236.017 164.258 239.251 151.614 240.417C151.148 241.349 151.148 242.718 151.614 244.524C162.627 244.175 170.435 244 175.038 244C182.322 244 190.625 244.175 199.948 244.524C200.414 242.718 200.414 241.349 199.948 240.417C187.187 239.251 180.748 236.017 180.632 230.715C180.049 212.593 179.758 196.803 179.758 183.343C179.758 164.93 179.991 148.644 180.457 134.485H181.331L223.983 241.815H224.857L264.713 136.583H265.5C266.082 154.121 266.374 169.708 266.374 183.343C266.374 202.28 266.082 218.449 265.5 231.851C265.383 233.366 264.684 234.677 263.402 235.784C262.178 236.833 260.343 237.678 257.896 238.319C255.448 238.902 253.38 239.309 251.69 239.542C250 239.776 247.844 240.009 245.222 240.242C244.756 241.174 244.756 242.543 245.222 244.35C255.128 244 265.266 243.825 275.638 243.825C288.049 243.825 299.994 244 311.473 244.35C311.939 243.301 311.939 241.931 311.473 240.242C292.128 239.076 282.397 236.338 282.281 232.026C281.582 213.73 281.232 195.346 281.232 176.875C281.232 158.987 281.465 142.701 281.931 128.017C282.048 123.705 291.778 120.967 311.124 119.801C311.59 118.112 311.59 116.742 311.124 115.693C299.645 116.043 284.378 116.218 265.325 116.218L228.091 213.409L192.256 116.218C178.039 116.218 165.453 115.985 154.499 115.519C153.916 116.684 153.916 117.791 154.499 118.84C161.432 119.83 165.948 121.287 168.046 123.21C170.202 125.075 171.338 129.416 171.455 136.233C171.862 150.567 172.066 164.114 172.066 176.875C172.066 194.53 171.688 212.477 170.93 230.715ZM167.347 230.715C168.104 212.36 168.483 194.414 168.483 176.875C168.483 164.114 168.279 150.567 167.871 136.233C167.755 130.872 166.706 127.434 164.725 125.919C162.802 124.346 158.606 123.123 152.139 122.249C150.507 118.694 150.565 115.198 152.313 111.76C165.715 112.343 183.137 112.634 204.58 112.634L233.248 189.199L262.79 112.634C278.406 112.634 295.653 112.401 314.532 111.935C315.698 115.723 315.814 119.481 314.882 123.21C302.005 124.492 295.508 126.211 295.391 128.367C294.867 139.321 294.604 155.491 294.604 176.875C294.604 198.959 294.983 217.226 295.741 231.676C295.857 233.832 302.354 235.551 315.231 236.833C316.164 240.562 316.047 244.32 314.882 248.108C296.003 247.642 285.019 247.409 281.931 247.409C277.27 247.409 264.218 247.642 242.775 248.108C241.318 244.029 241.318 240.271 242.775 236.833C255.419 235.551 261.799 233.89 261.916 231.851C262.499 218.216 262.79 202.047 262.79 183.343C262.79 168.776 262.732 158.084 262.615 151.266L227.305 245.398H221.449L183.341 149.343V183.343C183.341 196.803 183.633 212.593 184.215 230.715C184.332 233.861 190.712 235.959 203.356 237.008C204.813 240.504 204.813 244.262 203.356 248.283C185.934 247.584 167.842 247.584 149.08 248.283C147.681 244.262 147.681 240.504 149.08 237.008C161.141 235.842 167.23 233.745 167.347 230.715Z" fill="white"/>
<path d="M302.621 265.417C299.358 265.242 296.182 265.009 293.094 264.717C290.064 264.368 287.297 263.902 284.791 263.319C282.285 262.736 280.159 261.979 278.411 261.047C276.721 260.056 275.614 258.832 275.089 257.376L226.756 137.984C225.765 138.042 224.804 138.45 223.872 139.208C223.464 146.433 221.25 152.231 217.229 156.601L219.239 161.757L182.355 254.491C180.025 260.318 172.858 263.96 160.854 265.417C160.505 266.232 160.33 266.961 160.33 267.602C160.33 268.301 160.505 269 160.854 269.699C167.497 269.466 172.829 269.291 176.849 269.175C180.928 269.058 183.725 269 185.24 269C186.58 269 189.61 269.058 194.33 269.175C199.108 269.291 205.575 269.466 213.733 269.699C214.083 269 214.257 268.301 214.257 267.602C214.257 266.961 214.083 266.232 213.733 265.417C208.897 264.95 204.964 264.455 201.934 263.931C198.904 263.348 196.544 262.736 194.854 262.095C193.164 261.454 192.028 260.755 191.445 259.998C190.863 259.182 190.571 258.279 190.571 257.288C190.571 256.647 190.688 256.006 190.921 255.365L203.682 223.376C210.149 223.26 215.364 223.172 219.327 223.114C223.347 223.056 226.115 223.026 227.63 223.026C230.951 223.026 233.894 223.056 236.458 223.114C239.08 223.114 241.323 223.143 243.188 223.201L255.861 255.365C256.152 256.239 256.298 256.909 256.298 257.376C256.298 258.949 255.482 260.347 253.851 261.571C252.277 262.795 250.325 263.639 247.995 264.106L238.555 265.417C238.206 266.232 238.031 266.961 238.031 267.602C238.031 268.301 238.206 269 238.555 269.699C243.508 269.525 248.519 269.379 253.588 269.262C258.716 269.146 263.96 269.088 269.321 269.088C274.681 269.088 280.1 269.146 285.578 269.262C291.113 269.379 296.794 269.525 302.621 269.699C303.029 268.884 303.233 268.184 303.233 267.602C303.233 267.252 303.175 266.902 303.058 266.553C302.942 266.203 302.796 265.825 302.621 265.417ZM227.63 216.209C219.181 216.209 212.218 216.093 206.741 215.859L223.347 173.032H223.697L240.391 216.034C237.244 216.151 232.991 216.209 227.63 216.209ZM223.522 182.21L211.897 212.451C218.948 212.8 226.698 212.859 235.146 212.626L223.522 182.21ZM305.331 262.183C306.787 265.679 306.729 269.379 305.156 273.283H235.846C234.447 269.262 234.447 265.562 235.846 262.183C242.197 261.833 246.684 261.192 249.306 260.26C251.928 259.269 252.831 257.696 252.015 255.54L240.565 226.61C229.786 226.202 218.249 226.319 205.954 226.96L194.679 255.89C194.33 256.88 194.592 257.783 195.466 258.599C196.398 259.357 197.884 259.969 199.923 260.435C201.963 260.901 204.352 261.28 207.09 261.571C209.829 261.862 212.917 262.066 216.355 262.183C217.812 265.679 217.753 269.379 216.18 273.283C197.068 272.584 177.811 272.584 158.407 273.283C156.834 269.379 156.776 265.679 158.232 262.183C170.236 260.784 177.024 258.162 178.597 254.317L215.481 161.583C215.248 161.116 214.782 160.068 214.083 158.436C213.442 156.746 213.063 155.639 212.946 155.115C217.491 150.512 219.997 144.568 220.463 137.285C225.59 134.779 231.621 133.352 238.555 133.002L287.588 254.666C288.695 257.405 290.443 259.24 292.832 260.172C295.221 261.047 299.387 261.717 305.331 262.183Z" fill="white"/>
<path d="M112.225 334.829L100.091 336.196L101.067 308.901L88.2988 330.312L77.3857 317.104C76.7998 319.79 76.165 322.191 75.4814 324.307C74.7979 326.406 74.0736 328.229 73.3086 329.775C72.2995 331.826 71.0788 333.665 69.6465 335.293C68.2142 336.937 66.5785 338.377 64.7393 339.614L63.7627 337.563C66.0576 335.854 67.9945 333.454 69.5732 330.361C71.1683 327.269 72.4215 323.485 73.333 319.009L78.6309 292.959L91.3506 316.738L102.703 293.74L108.172 293.936L112.225 334.829ZM88.6162 321.279L79.8271 306.094L78.582 312.588L87.1758 323.843L88.6162 321.279ZM107.049 316.323V315.371L105.73 315.859C105.6 318.171 105.291 320.433 104.803 322.646C104.331 324.844 103.688 326.984 102.874 329.067L105.315 329.458C105.918 327 106.357 324.681 106.634 322.5C106.91 320.303 107.049 318.244 107.049 316.323ZM131.536 295.889C130.413 300.153 129.469 303.856 128.704 306.997C127.955 310.122 127.394 312.686 127.02 314.687C126.434 317.861 125.978 321.068 125.652 324.307C125.343 327.546 125.164 330.793 125.115 334.048L119.305 334.707C119.158 333.079 119.044 331.419 118.963 329.727C118.898 328.018 118.865 326.26 118.865 324.453C118.865 319.928 119.093 315.143 119.549 310.098C120.005 305.052 120.688 299.754 121.6 294.204L131.536 295.889ZM127.728 301.235L126.849 300.112C125.709 301.935 124.676 303.937 123.748 306.118C122.837 308.283 122.023 310.618 121.307 313.125L123.528 314.077C123.919 311.815 124.464 309.617 125.164 307.485C125.864 305.337 126.718 303.254 127.728 301.235ZM170.574 309.365C170.574 309.87 170.566 310.382 170.55 310.903C170.534 311.408 170.509 311.929 170.477 312.466L169.231 337.563L142.498 310.391L141.399 333.682L131.536 333.755L134.466 325.845L139.202 325.601L141.253 291.445L164.764 320.425C164.894 318.862 165.032 317.308 165.179 315.762C165.325 314.215 165.472 312.661 165.618 311.099C165.797 309.243 165.927 307.534 166.009 305.972C166.09 304.409 166.131 302.993 166.131 301.724C166.131 299.071 165.822 296.694 165.203 294.595C164.585 292.495 163.649 290.68 162.396 289.15L164.007 288.149C166.188 290.542 167.824 293.504 168.914 297.036C170.021 300.568 170.574 304.678 170.574 309.365ZM149.969 308.779C149.969 308.193 149.822 307.754 149.529 307.461C149.253 307.168 148.821 307.021 148.235 307.021C147.666 307.021 147.234 307.168 146.941 307.461C146.648 307.754 146.502 308.193 146.502 308.779C146.502 309.365 146.648 309.805 146.941 310.098C147.234 310.374 147.666 310.513 148.235 310.513C148.821 310.513 149.253 310.374 149.529 310.098C149.822 309.805 149.969 309.365 149.969 308.779ZM156.756 316.25C156.756 315.631 156.536 315.094 156.097 314.639C155.657 314.183 155.136 313.955 154.534 313.955C153.883 313.955 153.33 314.183 152.874 314.639C152.435 315.078 152.215 315.615 152.215 316.25C152.215 316.885 152.435 317.414 152.874 317.837C153.33 318.26 153.883 318.472 154.534 318.472C155.136 318.472 155.657 318.26 156.097 317.837C156.536 317.397 156.756 316.868 156.756 316.25ZM162.859 323.647C162.859 323.078 162.721 322.646 162.444 322.353C162.168 322.061 161.728 321.914 161.126 321.914C160.54 321.914 160.101 322.061 159.808 322.353C159.515 322.646 159.368 323.078 159.368 323.647C159.368 324.233 159.515 324.673 159.808 324.966C160.101 325.259 160.54 325.405 161.126 325.405C161.728 325.405 162.168 325.259 162.444 324.966C162.721 324.673 162.859 324.233 162.859 323.647ZM196.087 301.992L195.354 308.462L189.666 307.07L191.57 303.091L196.087 301.992ZM204.51 303.603L200.604 304.727C200.473 303.001 200.099 301.577 199.48 300.454C198.878 299.315 198.024 298.468 196.917 297.915C196.315 297.622 195.338 297.353 193.987 297.109C192.653 296.849 190.952 296.637 188.885 296.475L187.005 312.588L199.48 311.929L196.355 318.936L186.395 316.811L184.197 333.145L193.353 333.267L196.551 328.579L201.653 328.286L201.775 336.074L178.24 334.756L179.607 309.268L182.879 309.438L183.416 307.339L179.656 307.29L179.852 304.336L183.416 304.604L183.782 301.992H179.974L180.096 299.111L183.66 299.38L184.148 297.134L180.218 296.938L180.462 292.495C182.073 292.625 183.693 292.756 185.32 292.886C186.948 293 188.576 293.105 190.203 293.203C192.14 293.431 193.865 293.765 195.379 294.204C196.893 294.627 198.187 295.164 199.261 295.815C200.677 296.662 201.816 297.736 202.679 299.038C203.558 300.34 204.168 301.862 204.51 303.603ZM240.887 330.532C240.171 332.078 239.324 333.234 238.348 333.999C237.371 334.748 236.272 335.122 235.052 335.122C233.701 335.122 232.334 334.666 230.95 333.755C229.583 332.843 228.2 331.476 226.8 329.653L218.572 318.887L215.594 319.717L214.764 335.122L210.223 335.879L208.562 292.495L211.053 292.446L211.175 295.571L215.765 295.937L216.229 292.959L218.694 293.13L218.377 296.353L221.771 297.183L223.26 294.058L225.384 295.059L223.919 297.988C224.716 298.297 225.408 298.696 225.994 299.185C226.596 299.657 227.109 300.194 227.532 300.796L229.925 299.111L231.536 300.918L228.436 302.969C228.696 303.571 228.867 304.255 228.948 305.02C229.03 305.784 229.013 306.623 228.899 307.534L232.415 308.779L231.414 310.928L228.436 309.829C228.273 310.464 228.021 311.107 227.679 311.758C227.337 312.393 226.914 313.019 226.409 313.638L228.777 315.737L227.288 317.69L224.627 315.688L223.382 316.372L231.17 328.774C231.447 329.198 231.764 329.604 232.122 329.995C232.496 330.386 232.92 330.752 233.392 331.094C233.929 331.484 234.441 331.777 234.93 331.973C235.434 332.168 235.914 332.266 236.37 332.266C237.021 332.266 237.648 332.087 238.25 331.728C238.852 331.37 239.438 330.841 240.008 330.142L240.887 330.532ZM223.553 312.759L220.647 299.746C220.159 299.534 219.606 299.347 218.987 299.185C218.385 299.006 217.71 298.859 216.961 298.745L215.765 316.934C217.409 316.51 218.882 315.949 220.184 315.249C221.486 314.549 222.609 313.719 223.553 312.759ZM289.397 333.755L285.076 334.756L282.146 325.845L264.642 325.601L260.271 337.49L250.872 331.02L269.256 293.325L276.043 292.739L289.397 333.755ZM278.289 314.199L273.699 297.793L267.4 316.689L278.289 314.199ZM280.706 321.548L279.29 317.3L266.155 320.547L265.374 322.524L280.706 321.548ZM262.64 318.936L261.761 317.812C260.589 319.766 259.547 321.825 258.636 323.989C257.724 326.154 256.943 328.433 256.292 330.825L258.538 331.777C258.864 329.547 259.368 327.367 260.052 325.234C260.752 323.086 261.614 320.986 262.64 318.936ZM329.705 309.365C329.705 309.87 329.697 310.382 329.681 310.903C329.664 311.408 329.64 311.929 329.607 312.466L328.362 337.563L301.629 310.391L300.53 333.682L290.667 333.755L293.597 325.845L298.333 325.601L300.384 291.445L323.895 320.425C324.025 318.862 324.163 317.308 324.31 315.762C324.456 314.215 324.603 312.661 324.749 311.099C324.928 309.243 325.058 307.534 325.14 305.972C325.221 304.409 325.262 302.993 325.262 301.724C325.262 299.071 324.952 296.694 324.334 294.595C323.715 292.495 322.78 290.68 321.526 289.15L323.138 288.149C325.319 290.542 326.954 293.504 328.045 297.036C329.152 300.568 329.705 304.678 329.705 309.365ZM309.1 308.779C309.1 308.193 308.953 307.754 308.66 307.461C308.383 307.168 307.952 307.021 307.366 307.021C306.797 307.021 306.365 307.168 306.072 307.461C305.779 307.754 305.633 308.193 305.633 308.779C305.633 309.365 305.779 309.805 306.072 310.098C306.365 310.374 306.797 310.513 307.366 310.513C307.952 310.513 308.383 310.374 308.66 310.098C308.953 309.805 309.1 309.365 309.1 308.779ZM315.887 316.25C315.887 315.631 315.667 315.094 315.228 314.639C314.788 314.183 314.267 313.955 313.665 313.955C313.014 313.955 312.461 314.183 312.005 314.639C311.565 315.078 311.346 315.615 311.346 316.25C311.346 316.885 311.565 317.414 312.005 317.837C312.461 318.26 313.014 318.472 313.665 318.472C314.267 318.472 314.788 318.26 315.228 317.837C315.667 317.397 315.887 316.868 315.887 316.25ZM321.99 323.647C321.99 323.078 321.852 322.646 321.575 322.353C321.299 322.061 320.859 321.914 320.257 321.914C319.671 321.914 319.231 322.061 318.938 322.353C318.646 322.646 318.499 323.078 318.499 323.647C318.499 324.233 318.646 324.673 318.938 324.966C319.231 325.259 319.671 325.405 320.257 325.405C320.859 325.405 321.299 325.259 321.575 324.966C321.852 324.673 321.99 324.233 321.99 323.647ZM368.182 294.497L367.645 298.379C366.57 298.184 365.504 298.037 364.446 297.939C363.388 297.842 362.355 297.793 361.346 297.793C360.06 297.793 358.758 297.874 357.439 298.037C356.137 298.2 354.819 298.436 353.484 298.745L355.804 334.878L344.769 333.437L347.503 299.038L345.843 299.062C344.069 299.095 342.506 299.014 341.155 298.818C339.821 298.623 338.714 298.306 337.835 297.866C336.614 297.248 335.703 296.393 335.101 295.303C334.515 294.212 334.222 292.861 334.222 291.25V290.64L335.857 290.078C335.923 291.901 336.606 293.268 337.908 294.18C339.227 295.075 341.147 295.522 343.67 295.522C345.802 295.522 348.968 295.205 353.167 294.57C357.382 293.936 360.556 293.618 362.688 293.618C363.812 293.618 364.837 293.7 365.765 293.862C366.692 294.009 367.498 294.22 368.182 294.497ZM352.068 309.829C352.068 309.243 351.922 308.804 351.629 308.511C351.352 308.218 350.921 308.071 350.335 308.071C349.749 308.071 349.301 308.218 348.992 308.511C348.699 308.804 348.553 309.243 348.553 309.829C348.553 310.431 348.699 310.879 348.992 311.172C349.301 311.449 349.749 311.587 350.335 311.587C350.921 311.587 351.352 311.449 351.629 311.172C351.922 310.879 352.068 310.431 352.068 309.829ZM352.483 317.104C352.483 316.502 352.264 315.981 351.824 315.542C351.401 315.086 350.88 314.858 350.262 314.858C349.643 314.858 349.114 315.086 348.675 315.542C348.235 315.981 348.016 316.502 348.016 317.104C348.016 317.739 348.235 318.276 348.675 318.716C349.114 319.155 349.643 319.375 350.262 319.375C350.88 319.375 351.401 319.155 351.824 318.716C352.264 318.276 352.483 317.739 352.483 317.104ZM351.946 324.77C351.946 324.201 351.8 323.77 351.507 323.477C351.23 323.184 350.799 323.037 350.213 323.037C349.627 323.037 349.179 323.184 348.87 323.477C348.577 323.77 348.431 324.201 348.431 324.77C348.431 325.356 348.577 325.796 348.87 326.089C349.179 326.366 349.627 326.504 350.213 326.504C350.799 326.504 351.23 326.366 351.507 326.089C351.8 325.796 351.946 325.356 351.946 324.77ZM394.378 301.235C394.378 303.791 393.605 305.841 392.059 307.388C390.512 308.934 388.47 309.707 385.931 309.707C384.873 309.707 383.888 309.585 382.977 309.341C382.081 309.08 381.259 308.682 380.511 308.145C379.681 307.559 379.054 306.859 378.631 306.045C378.224 305.231 378.021 304.32 378.021 303.311C378.021 302.464 378.175 301.715 378.484 301.064C378.794 300.397 379.266 299.836 379.9 299.38C380.47 298.973 381.105 298.664 381.805 298.452C382.521 298.241 383.318 298.135 384.197 298.135C384.734 298.135 385.247 298.2 385.735 298.33C386.224 298.46 386.655 298.664 387.029 298.94C387.469 299.266 387.794 299.64 388.006 300.063C388.234 300.47 388.348 300.942 388.348 301.479C388.348 302.261 388.047 302.912 387.444 303.433C386.858 303.953 386.159 304.214 385.345 304.214C384.824 304.214 384.384 304.124 384.026 303.945C383.668 303.766 383.392 303.481 383.196 303.091C383.326 303.123 383.465 303.148 383.611 303.164C383.758 303.18 383.888 303.188 384.002 303.188C384.572 303.188 384.995 303.091 385.271 302.895C385.548 302.684 385.687 302.358 385.687 301.919C385.687 301.496 385.54 301.178 385.247 300.967C384.954 300.739 384.515 300.625 383.929 300.625C383.538 300.625 383.164 300.682 382.806 300.796C382.448 300.894 382.138 301.048 381.878 301.26C381.569 301.504 381.333 301.789 381.17 302.114C381.007 302.423 380.926 302.765 380.926 303.14C380.926 304.344 381.316 305.239 382.098 305.825C382.879 306.411 384.051 306.704 385.613 306.704C387.143 306.704 388.38 306.183 389.324 305.142C390.268 304.084 390.74 302.782 390.74 301.235C390.74 300.308 390.521 299.478 390.081 298.745C389.658 298.013 389.023 297.378 388.177 296.841C387.477 296.385 386.696 296.051 385.833 295.84C384.987 295.628 384.067 295.522 383.074 295.522C381.87 295.522 380.771 295.669 379.778 295.962C378.785 296.255 377.907 296.702 377.142 297.305C376.312 297.956 375.685 298.737 375.262 299.648C374.839 300.56 374.627 301.602 374.627 302.773C374.627 303.962 375.018 305.117 375.799 306.24C376.58 307.347 377.752 308.429 379.314 309.487C380.779 310.48 382.236 311.465 383.685 312.441C385.133 313.418 386.582 314.395 388.03 315.371C389.593 316.755 390.765 318.276 391.546 319.936C392.327 321.58 392.718 323.363 392.718 325.283C392.718 327.09 392.392 328.709 391.741 330.142C391.106 331.558 390.138 332.778 388.836 333.804C387.632 334.748 386.272 335.472 384.759 335.977C383.261 336.481 381.593 336.733 379.754 336.733C378.305 336.733 376.971 336.603 375.75 336.343C374.546 336.082 373.431 335.684 372.405 335.146C371.152 334.479 370.208 333.657 369.573 332.681C368.938 331.688 368.621 330.532 368.621 329.214C368.621 327.212 369.158 325.601 370.232 324.38C371.323 323.143 372.853 322.524 374.822 322.524C375.62 322.524 376.344 322.638 376.995 322.866C377.646 323.094 378.24 323.42 378.777 323.843C379.363 324.298 379.795 324.836 380.071 325.454C380.364 326.073 380.511 326.756 380.511 327.505C380.511 328.905 380.177 329.954 379.51 330.654C378.842 331.338 377.825 331.68 376.458 331.68C375.726 331.68 375.083 331.476 374.529 331.069C373.992 330.646 373.724 330.093 373.724 329.409C373.724 328.791 373.862 328.327 374.139 328.018C374.432 327.708 374.863 327.554 375.433 327.554C375.498 327.554 375.571 327.562 375.652 327.578C375.734 327.578 375.815 327.578 375.896 327.578C375.701 327.725 375.555 327.879 375.457 328.042C375.359 328.205 375.311 328.367 375.311 328.53C375.311 328.856 375.408 329.092 375.604 329.238C375.799 329.385 376.084 329.458 376.458 329.458C376.881 329.458 377.19 329.328 377.386 329.067C377.597 328.791 377.703 328.376 377.703 327.822C377.703 327.448 377.614 327.114 377.435 326.821C377.272 326.512 377.011 326.235 376.653 325.991C376.36 325.796 376.027 325.649 375.652 325.552C375.294 325.454 374.912 325.405 374.505 325.405C373.382 325.405 372.535 325.731 371.966 326.382C371.396 327.017 371.111 327.961 371.111 329.214C371.111 329.946 371.282 330.597 371.624 331.167C371.966 331.737 372.47 332.225 373.138 332.632C373.691 332.974 374.31 333.226 374.993 333.389C375.677 333.551 376.409 333.633 377.19 333.633C378.183 333.633 379.095 333.462 379.925 333.12C380.755 332.778 381.495 332.257 382.146 331.558C382.781 330.874 383.253 330.117 383.562 329.287C383.888 328.457 384.051 327.529 384.051 326.504C384.051 325.43 383.717 324.29 383.05 323.086C382.399 321.865 381.398 320.588 380.047 319.253C378.842 318.065 377.614 316.893 376.36 315.737C375.123 314.582 373.886 313.418 372.649 312.246C371.331 310.83 370.338 309.438 369.671 308.071C369.004 306.688 368.67 305.337 368.67 304.019C368.67 302.065 369.012 300.34 369.695 298.843C370.379 297.345 371.396 296.092 372.747 295.083C373.968 294.172 375.384 293.496 376.995 293.057C378.623 292.601 380.454 292.373 382.488 292.373C383.986 292.373 385.394 292.552 386.712 292.91C388.047 293.252 389.275 293.781 390.398 294.497C391.733 295.343 392.726 296.328 393.377 297.451C394.044 298.574 394.378 299.836 394.378 301.235Z" fill="white"/>
<defs>
<filter id="filter0_d_0_1" x="0.962982" y="0.266521" width="463" height="455" filterUnits="userSpaceOnUse" color-interpolation-filters="sRGB">
<feFlood flood-opacity="0" result="BackgroundImageFix"/>
<feColorMatrix in="SourceAlpha" type="matrix" values="0 0 0 0 0 0 0 0 0 0 0 0 0 0 0 0 0 0 127 0" result="hardAlpha"/>
<feMorphology radius="17" operator="dilate" in="SourceAlpha" result="effect1_dropShadow_0_1"/>
<feOffset dy="4"/>
<feGaussianBlur stdDeviation="2"/>
<feComposite in2="hardAlpha" operator="out"/>
<feColorMatrix type="matrix" values="0 0 0 0 0.996078 0 0 0 0 0.54902 0 0 0 0 0 0 0 0 1 0"/>
<feBlend mode="normal" in2="BackgroundImageFix" result="effect1_dropShadow_0_1"/>
<feBlend mode="normal" in="SourceGraphic" in2="effect1_dropShadow_0_1" result="shape"/>
</filter>
</defs>
</svg>
